<svg xmlns="http://www.w3.org/2000/svg" xmlns:xlink="http://www.w3.org/1999/xlink" viewBox="0 0 473.03 467.52"><defs><style>.a{fill:url(#a);}.b{fill:url(#b);}.c{fill:url(#c);}.d{fill:url(#d);}.e{fill:url(#e);}.f{fill:url(#f);}.g{fill:url(#g);}.h{fill:url(#h);}.i{fill:url(#i);}.j{fill:url(#j);}.k{fill:url(#k);}.l{fill:url(#l);}.m{fill:url(#m);}.n{fill:url(#n);}.o{fill:url(#o);}</style><linearGradient id="a" x1="370.13" y1="497" x2="370.13" gradientUnits="userSpaceOnUse"><stop offset="0" stop-color="#9f2fff"/><stop offset="1" stop-color="#0bb1d3"/></linearGradient><linearGradient id="b" x1="211.92" y1="497" x2="211.92" y2="0" xlink:href="#a"/><linearGradient id="c" x1="125.96" y1="497" x2="125.96" y2="0" xlink:href="#a"/><linearGradient id="d" x1="211.89" y1="497" x2="211.89" y2="0" xlink:href="#a"/><linearGradient id="e" x1="141.65" y1="497" x2="141.65" y2="0" xlink:href="#a"/><linearGradient id="f" x1="157.23" y1="497" x2="157.23" y2="0" xlink:href="#a"/><linearGradient id="g" x1="266.6" y1="497" x2="266.6" y2="0" xlink:href="#a"/><linearGradient id="h" x1="329.12" y1="497" x2="329.12" y2="0" xlink:href="#a"/><linearGradient id="i" x1="335.86" y1="497" x2="335.86" y2="0" xlink:href="#a"/><linearGradient id="j" x1="336.95" y1="497" x2="336.95" y2="0" xlink:href="#a"/><linearGradient id="k" x1="321.29" y1="497" x2="321.29" y2="0" xlink:href="#a"/><linearGradient id="l" x1="352.54" y1="497" x2="352.54" y2="0" xlink:href="#a"/><linearGradient id="m" x1="336.91" y1="497" x2="336.91" y2="0" xlink:href="#a"/><linearGradient id="n" x1="336.91" y1="497" x2="336.91" y2="0" xlink:href="#a"/><linearGradient id="o" x1="165.04" y1="497" x2="165.04" y2="0" xlink:href="#a"/></defs><title>automation</title><path class="a" d="M483.45,409.83c-4.49-4.12-6-8.52-5.92-14.52.35-19.36.2-38.73.12-58.1-.07-18-13.51-31.51-31.44-31.67-4.88-.05-9.76,0-14.65,0-8.56,0-8.56,0-8.56-8.33,0-25.88.08-51.76,0-77.63a30.88,30.88,0,0,0-30.9-31.2q-55.17-.17-110.34,0a30.79,30.79,0,0,0-30.86,30.74q-.1,117.92,0,235.82a30.76,30.76,0,0,0,30.61,30.49q55.17.18,110.34,0c10,0,18.24-4.19,24.57-12,.88-1.07,1.83-2.08,3.53-4l21.83,22.84c2.67-3.4,4.6-6.49,7.15-9s2.58-4.14,0-6.7Q431,459,413.34,441c-13.86-14.11-14.68-34.24-2.24-49.62,5.59-6.89,5.48-9.58-.7-15.78-7.81-7.85-15.87-15.45-23.31-23.63-2.11-2.31-3.8-6.48-3.29-9.38,1.19-6.78,9.05-8.37,14.51-3.17,7.77,7.41,15.24,15.14,22.86,22.71,1.23,1.23,2.57,2.35,5.25,4.77,2.31-3,4.1-6,6.57-8.3,3-2.76,3.35-5-.05-7.33-8.87-6.13-11.54-14.68-9.95-24.95a2,2,0,0,0,0-.49c-.35-3.46,1.39-4.57,4.65-4.47,5.2.14,10.41,0,15.62,0,12.46.06,18.48,6.1,18.5,18.66,0,21.49,0,43,.1,64.45,0,2.5.25,5.69,1.74,7.34,5.09,5.63,10.78,10.72,16.48,16.24,1.12-1,2.25-1.86,3.27-2.85C491.33,417.52,491.56,417.26,483.45,409.83Zm-76.38-88.49a21.48,21.48,0,0,1-.23,2.27c-5.49-1.21-10.47-3.14-15.47-3.24-10.42-.19-18.06,5.06-22.23,14.6s-2.59,18.64,4.41,26.3c6.36,7,13.2,13.49,20,20.07,2.15,2.08,2.23,3.67.71,6.28-13.05,22.33-9.86,46.76,8.34,65.31,4.43,4.52,4.82,7.91-.13,11.76-3.26,2.53-7.83,4.67-11.83,4.71-35.8.35-71.61.29-107.42.16-10.58,0-16.48-6.77-16.48-18.2q0-104,0-208c0-7.32-.07-14.65,0-22,.14-10.68,6.42-17.07,17.09-17.09q53.22-.12,106.44,0c10.16,0,16.66,6.39,16.7,16.45C407.14,254.29,407.07,287.81,407.07,321.34Z" transform="translate(-16.41 -24.71)"/><path class="b" d="M29.13,125.23c5.76-1.6,11.5-3.28,18.21-5.19.15,2.73.32,4.47.33,6.22,0,7.81,0,15.62,0,23.43q0,39.8.06,79.57c0,1.86.47,5.24,1.08,5.33a47.2,47.2,0,0,0,12.94.27c.94-.14,1.79-4.37,1.8-6.73q.16-53.7,0-107.4c0-3.82,1-5.88,4.92-7,42.82-12.37,85.68-24.63,128.33-37.58a49.36,49.36,0,0,1,30.27,0c42.17,12.82,84.56,25,126.93,37.12,4.8,1.38,6.37,3.62,6.26,8.54-.31,13.66-.16,27.34-.09,41,.06,11.22-1.38,10,10.16,10.28,4.49.12,5.93-1.45,5.86-5.89-.22-13.67-.1-27.34-.05-41,0-1.83.36-3.66.61-6.1,6.79,2,12.82,3.79,18.92,5.4,7.14,1.9,11.55-1.38,11.66-8.71.12-8.29,0-16.59,0-24.89,0-10.21-.63-11.26-10.37-14.11q-90.16-26.37-180.4-52.49a19.88,19.88,0,0,0-10.43.27c-27.85,7.92-55.62,16.11-83.42,24.23q-49,14.28-97.9,28.61c-7,2.06-8.41,4-8.44,11.1,0,8.79-.05,17.58,0,26.36C16.51,124.45,20.77,127.57,29.13,125.23ZM32.8,95c.37-1.58,3.49-3,5.61-3.63,23.07-6.85,46.2-13.53,69.31-20.26,32.79-9.56,65.54-19.23,98.4-28.53a23.53,23.53,0,0,1,12.27.06q82.53,23.74,164.91,48c8.2,2.39,8.2,2.43,8.12,10.84,0,1.59-.16,3.18-.29,5.72-11.27-3.26-21.71-6.25-32.14-9.29C312.15,84.24,265.34,70.5,218.43,57.07A24.4,24.4,0,0,0,205.68,57Q122,81.06,38.41,105.59c-1.67.48-3.38.84-5.88,1.46C32.53,102.59,32,98.64,32.8,95Z" transform="translate(-16.41 -24.71)"/><path class="c" d="M226.54,336.78c-6.66,0-6.67,0-6.67-6.82,0-26.68,0-53.37,0-80a43.6,43.6,0,0,0-14.53-33c-15-13.72-32.59-17.13-51.15-9s-28.25,23.34-28.32,44c-.07,23.1,0,46.21,0,69.31,0,17.17,0,17.17-17.42,15.36-.15,0-.28-.15-.7-.39-.07-.52-.24-.89-.13-1.14,5.93-14.25,2.7-26.17-8.46-36.66-2.4-2.26-3.25-6.46-4.19-9.94-1.73-6.38-2.09-13.27-4.62-19.28-7-16.58-25-23.24-40-15.09-13,7.06-17.25,19.34-18.08,33.08A19.29,19.29,0,0,1,27,299.77c-3.24,3.55-6.7,7.37-8.46,11.72-7.92,19.53,8,41.12,30.17,41.15q90.07.12,180.13,0c6.66,0,6.69,0,6.69-6.87C235.47,336,236.1,336.83,226.54,336.78Zm-138-4.26a26.48,26.48,0,0,1-11.16,4.08c-4.62.69-9.41.16-14.12.16-4.55,0-9.11.07-13.65,0a18.09,18.09,0,0,1-13.38-6.09c-4.79-5.2-5-11.23-.58-16.75,1.52-1.9,3.32-3.57,5-5.36a28.13,28.13,0,0,0,7.49-18A50,50,0,0,1,51,276.33c2.14-5.68,6.67-9.46,13-9.37,6.52.09,10.27,4.52,12.3,10.22,1.25,3.48,2.41,7.26,2.38,10.89-.1,10.07,4.29,17.63,11.3,24.4C96.59,318.83,96,327.19,88.53,332.52Zm110.74,4.31q-26.36-.19-52.72,0c-4.06,0-4.89-1.75-4.86-5.32.13-13.66.05-27.33.05-41h0c0-13-.19-26,.05-39,.43-24.32,25.25-39.13,46.13-27.44,10.3,5.76,15.79,15.06,15.91,26.84.26,27,.06,54,.16,81C204,335.38,203,336.85,199.27,336.83Z" transform="translate(-16.41 -24.71)"/><path class="d" d="M243.23,123.61c-.58-15.94-14.67-29-31-29-16.72-.07-31.17,12.88-31.56,29s-.18,32.2-.08,48.29c0,6,3,8.91,9.13,8.95q22.2.15,44.39,0c6.35,0,9.14-2.94,9.22-9.37.11-8,0-15.94,0-23.91h0C243.28,139.55,243.52,131.57,243.23,123.61ZM217,164.87c-1.79,0-3.58,0-5.37,0-2.44,0-4.9.17-7.32,0s-6.87-.46-7-1.33c-.77-4.05-.48-8.33-.23-12.5,0-.53,2.11-1.32,3.25-1.34,7.81-.11,15.62-.21,23.42.1,1.26.05,2.45,2.11,3.62,3.29.17.17.05.63.05.95C227.3,166.87,228.54,164.65,217,164.87Zm10.15-33.66c-.35,1.06-2.25,2.18-3.52,2.28-3.72.3-7.47.11-11.22.11-4.06,0-8.14.18-12.19-.11-1.25-.09-3.14-1.25-3.49-2.32-1.78-5.59,1.36-14.08,6.12-17.48a15.11,15.11,0,0,1,17.4-.52C225.52,116.49,229,125.26,227.12,131.21Z" transform="translate(-16.41 -24.71)"/><path class="e" d="M206,368c-21.48.2-43,.09-64.44.09q-31.73,0-63.46,0c-6.95,0-6.95,0-7,7.09,0,.65,0,1.3,0,1.95,0,6.8,0,6.83,6.74,6.83q62.24,0,124.48,0c10.51,0,9.41,1.08,9.73-9.77C212.26,369.49,210.76,367.9,206,368Z" transform="translate(-16.41 -24.71)"/><path class="f" d="M149.24,141.29c0,8.29,0,8.29,7.68,8.29,8.28,0,8.28,0,8.29-7.67,0-8.28,0-8.28-7.68-8.29C149.25,133.61,149.25,133.61,149.24,141.29Z" transform="translate(-16.41 -24.71)"/><path class="g" d="M258.62,141.5c0,8.08,0,8.08,7.88,8.08,8.08,0,8.08,0,8.08-7.88,0-8.08,0-8.08-7.87-8.08C258.62,133.62,258.62,133.62,258.62,141.5Z" transform="translate(-16.41 -24.71)"/><path class="h" d="M332.91,383.67c-11.07,0-11.19,0-11.44-10.8-.08-3.56-1.32-4.9-4.89-4.87-13.14.11-11-.74-11,10.37,0,4-1.32,5.38-5.36,5.37-11.11,0-10.35-2.19-10.33,11,0,.16,0,.32,0,.49-.22,3.11,1.23,4.32,4.33,4.37,3.51.07,8.3-.67,10.15,1.25s1,6.7,1.11,10.22c.06,2.87,1.24,3.95,4.11,4.14,11.45.78,11.45.86,11.77-10.62a2.67,2.67,0,0,0,0-.49c-.32-3.38,1.24-4.65,4.58-4.57,6.18.15,12.36,0,18.55,0,4.39,0,8.79,0,13.18,0,11.61-.15,10.41,1.69,10.61-10.81.07-3.83-1.39-5.15-5.15-5.09C353.09,383.78,343,383.67,332.91,383.67Z" transform="translate(-16.41 -24.71)"/><path class="i" d="M383.67,276.25c-15.49-13.41-33.46-19.2-53.71-17.35-16.4,1.5-30.57,8.26-44,21.63,3.29,2.58,6.31,4.55,8.84,7s4.18,2.57,6.94.22c19.17-16.3,45.7-17.48,66.48-3.15,8.25,5.68,8.17,5.6,15.55-1.82C386.25,280.32,386.62,278.81,383.67,276.25Z" transform="translate(-16.41 -24.71)"/><path class="j" d="M360.78,305.7a11.23,11.23,0,0,1,1-1c2.77-2.24,2.27-4.21-.34-6.24-7.16-5.56-15.18-8.58-25.62-8.56-6.24-.31-13.11,1.92-19.49,5.76-7.87,4.72-7.92,5.46-1.63,11.77a25.14,25.14,0,0,1,2.06,2.07c2.07,2.64,3.94,2.81,6.9.74,7.17-5,15-5.68,23.07-2S354.67,311.9,360.78,305.7Z" transform="translate(-16.41 -24.71)"/><path class="k" d="M321.26,235.51c8,0,8,0,8-7.95s0-8-7.46-8c-8.48,0-8.48,0-8.48,7.94S313.32,235.51,321.26,235.51Z" transform="translate(-16.41 -24.71)"/><path class="l" d="M352.64,235.51c7.87,0,7.87,0,7.87-8.08,0-7.86,0-7.86-8.07-7.86-7.87,0-7.87,0-7.87,8.07C344.57,235.51,344.57,235.51,352.64,235.51Z" transform="translate(-16.41 -24.71)"/><path class="m" d="M329,329c0,8.06,0,8.06,7.84,8.06,8.05,0,8.05,0,8.05-7.84,0-8.06,0-8.06-7.84-8.06C329,321.15,329,321.15,329,329Z" transform="translate(-16.41 -24.71)"/><path class="n" d="M337.57,438.37c-8.56,0-8.56,0-8.58,7.39,0,8.44,0,8.44,7.52,8.45,8.32,0,8.32,0,8.32-7.64C344.84,438.38,344.84,438.38,337.57,438.37Z" transform="translate(-16.41 -24.71)"/><path class="o" d="M165.11,274.27c-8,0-8,0-8,7.4,0,8.51,0,8.51,7.89,8.51s8,0,8-7.89S173,274.27,165.11,274.27Z" transform="translate(-16.41 -24.71)"/></svg>