<svg xmlns="http://www.w3.org/2000/svg" xmlns:xlink="http://www.w3.org/1999/xlink" viewBox="0 0 453.47 465.12"><defs><style>.a{fill:url(#a);}.b{fill:url(#b);}.c{fill:url(#c);}.d{fill:url(#d);}.e{fill:url(#e);}.f{fill:url(#f);}.g{fill:url(#g);}.h{fill:url(#h);}.i{fill:url(#i);}.j{fill:url(#j);}</style><linearGradient id="a" x1="250.96" y1="497" x2="250.96" y2="2.96" gradientUnits="userSpaceOnUse"><stop offset="0" stop-color="#9f2fff"/><stop offset="1" stop-color="#0bb1d3"/></linearGradient><linearGradient id="b" x1="250.94" y1="497" x2="250.94" y2="2.96" xlink:href="#a"/><linearGradient id="c" x1="334.17" y1="497" x2="334.17" y2="2.96" xlink:href="#a"/><linearGradient id="d" x1="165.98" y1="497" x2="165.98" y2="2.96" xlink:href="#a"/><linearGradient id="e" x1="149.4" y1="497" x2="149.4" y2="2.96" xlink:href="#a"/><linearGradient id="f" x1="352.54" y1="497" x2="352.54" y2="2.96" xlink:href="#a"/><linearGradient id="g" x1="250.98" y1="497" x2="250.98" y2="2.96" xlink:href="#a"/><linearGradient id="h" x1="149.41" y1="497" x2="149.41" y2="2.96" xlink:href="#a"/><linearGradient id="i" x1="352.54" y1="497" x2="352.54" y2="2.96" xlink:href="#a"/><linearGradient id="j" x1="243.16" y1="497" x2="243.16" y2="2.96" xlink:href="#a"/></defs><title>greenbuilding</title><path class="a" d="M370.68,469c-.88-4.68-2.37-9.23-2.51-13.82-.56-18.63,13.33-32.67,32-32.33a13.77,13.77,0,0,0,11.1-4.52c12.19-12.42,31.71-14.79,46.81-6.11a39.19,39.19,0,0,1,18.4,43.57c-4.46,17.37-19.58,29.59-37.29,29.61q-107.88.13-215.78,0-79.82,0-159.64,0c-29-.05-47.62-28.74-36.07-55.3,10.63-24.44,43.58-31,62.57-12.27,3.3,3.25,6.4,5.13,11.38,5,22.84-.44,37.69,20.47,30.32,42.18-.4,1.19-.72,2.42-1.23,4.14,1.75.15,3.13.39,4.52.39,15.78,0,31.57-.12,47.35.1,4.52.07,6.07-1.46,5.83-5.9-.3-5.36-.15-10.74,0-16.11.12-6.43,2.83-9.07,9.3-9.31,6.26-.25,6.29-.25,6.29-6.75q0-46.62,0-93.24c0-20.44,9-35.65,27.39-44.13,18.17-8.4,35.7-5.6,50.94,7.6a43.61,43.61,0,0,1,15.64,34c.11,31.89,0,63.79,0,95.68,0,6.57,0,6.57,6.64,6.88,6.1.29,8.82,3,8.94,9.18.12,6,.08,12,0,18.06,0,2.56.9,4,3.67,4,17.41-.05,34.82-.05,52.23-.1A3.15,3.15,0,0,0,370.68,469ZM282,385h0V338.62c0-.33,0-.65,0-1-.41-17.77-14.15-31.73-31.18-31.67a31.3,31.3,0,0,0-31,31.33c-.24,32.06,0,64.13-.16,96.19,0,4.73,2.1,5.52,8.11,4.86a202.19,202.19,0,0,1,45.87,0c6.84.81,8.48-.58,8.43-5.51C281.92,416.9,282,401,282,385Zm137,84.55v0c6.51,0,13,.19,19.53,0,14.56-.51,25.4-13.47,22.78-27-2-10.38-9-17.23-19.58-19.12-9-1.63-18.28,2.89-23.49,11.45-3.93,6.44-6.12,7.13-13.24,5.07a19.32,19.32,0,0,0-8.54-.8,15.18,15.18,0,0,0-12.53,15.74A15.56,15.56,0,0,0,399,469.49C405.64,469.82,412.33,469.55,419,469.55ZM82,469.6v-.05c6.83,0,13.68.3,20.5-.08,6.47-.37,11.39-3.52,13.9-9.84,2.45-6.15,1-11.72-3.33-16.21s-9.91-5.86-16.15-3.73c-7.76,2.64-9.47,1.84-13.92-5.22-5.16-8.17-12.71-12.21-22.27-11.13-12.53,1.42-21.56,12-20.89,23.59.74,12.9,10.48,22.32,23.61,22.64C69.63,469.73,75.82,469.6,82,469.6Zm168.55,0h38.52c8.71,0,8.71,0,8.67-8.74,0-6.64,0-6.66-6.84-6.66q-38.52,0-77,0c-10.56,0-9.4-1.21-9.73,9.7-.14,4.61,1.61,5.83,6,5.76C223.57,469.48,237.06,469.61,250.55,469.62Z" transform="translate(-24.23 -20.36)"/><path class="b" d="M433.09,219c-2.47-5-4.61-9.3-6.77-13.62-4.66-9.32-9.46-18.56-13.91-28-1.64-3.47-3.81-4.6-7.56-4.59-33.53.13-67.05.08-100.57.07-7.36,0-7.36,0-7.39-7.21a28.62,28.62,0,0,0,0-2.93c-.48-4.42,1.38-5.93,5.87-5.9,27.66.17,55.33.08,83,.08,9.11,0,18.23.12,27.34,0,4.8-.08,7.91,1.84,10.05,6.17,9.72,19.7,19.65,39.29,29.39,59,3.88,7.84.53,13.19-8.18,13.32-5.36.08-10.74.22-16.1,0-4.1-.2-5.32,1.42-5.3,5.39.13,24.24.06,48.49.05,72.73q0,39.54,0,79.09c0,6.84,0,6.84-6.71,6.88-9.15,0-9.15,0-9.15-9.31q0-74,0-147.92c0-8.08,0-6.55-11.34-6.84-96.57-2.49-193.19-2.17-289.76,0-11.06.25-11.08-1.16-11.09,6.77q0,75.18-.11,150.36c0,2.19-.91,6.17-1.77,6.28a55,55,0,0,1-12.94-.3c-.52-.06-1-2.87-1-4.41-.09-11.06,0-22.13-.06-33.19,0-39.71-.09-79.41.07-119.12,0-4.78-1.13-6.84-6.24-6.45a154.56,154.56,0,0,1-16.11.05c-7.48-.23-11-5.65-7.69-12.36,10-20.29,20.18-40.48,30.27-60.72,2.06-4.13,5.45-5.84,10.53-5.19,9.4,1.2,18.91,1.61,28.28.17,5.82-.9,8.13-.14,8.09,4.24-.14,13.48,1.12,11.21-11,11.4-6.51.09-13-.17-19.52.15-1.76.09-4.29,1.29-5,2.72-7.18,13.87-14,27.9-21,41.89-.13.25,0,.62,0,1.37Z" transform="translate(-24.23 -20.36)"/><path class="c" d="M339.28,20.36c26.33.88,47.91,10.44,66.65,26.84,4.39,3.83,4.78,9.75.23,12.63-15.46,9.79-21.87,25.73-29.1,41.2-6.47,13.85-14.27,26.67-27,35.83-16.51,11.88-34,11.57-51.81,3.84-4.25-1.85-5.8-1.09-7.53,3A222.37,222.37,0,0,0,275.33,197c-1,6.35-1,6.34-7.42,5.44-9.72-1.38-9.8-1.39-8.19-11a224.83,224.83,0,0,1,17.64-57.18c1.76-3.84,1.37-6.26-1.64-9.35-14.2-14.55-15.45-32.16-10-50.43,9.43-31.44,32-47.81,63.55-53C333,20.81,336.73,20.63,339.28,20.36Zm-51.92,93.48c1.17-1.7,2.06-2.84,2.79-4.06a223.28,223.28,0,0,1,35.07-44.87c9.35-9.21,6.32-9.46,16.17.7.11.12.21.25.33.36,1.93,2,2,3.53-.17,5.72-6.92,7.1-14,14.1-20.15,21.85-6.75,8.53-12.51,17.82-18.67,26.81-1.32,1.94-1.93,3.84,1,5.1,12.46,5.37,24.69,6.89,36.61-1.54,8.08-5.71,13.7-13.4,18.18-22C367.16,85.29,373,67,387.24,54a6.76,6.76,0,0,0-.8-1.38,15.38,15.38,0,0,0-1.91-1.5C368.93,41,352,35.29,333.26,37.32,307.87,40.07,284.59,56.17,279.92,85,278.27,95.2,279,105.14,287.36,113.84Z" transform="translate(-24.23 -20.36)"/><path class="d" d="M153.6,47.71c41.69,0,70.15,18.59,81.06,48.88,6.39,17.73,7.78,35.94-5.23,51.32-5.91,7-5.93,12-2.29,19.47,3.75,7.7,5.91,16.17,8.86,24.26,1.06,2.9.37,4.46-2.68,5.47-11.24,3.71-11.13,3.76-15-7.5-2.23-6.45-4.92-12.75-7.19-19.19-1.36-3.85-2.88-4.64-7.12-3-6.59,2.56-13.62,4.76-20.61,5.35-22.44,1.91-37.66-10.28-49.08-27.81-5.65-8.67-9.87-18.31-14.36-27.69-5.55-11.59-12-22.28-23.09-29.6-5.61-3.7-5.67-9.16-.26-13.86C115.1,57.72,136.35,48.18,153.6,47.71Zm47.23,102.71c-.69-1.32-1.34-2.77-2.15-4.12a217,217,0,0,0-32.45-42c-8.49-8.56-8.42-8.48-.61-17.35,2.18-2.47,3.77-2.54,5.86-.14,10.05,11.5,20.38,22.76,30.11,34.52,4.8,5.81,8.52,12.52,13.72,20.3,2.47-5.13,5.09-8.89,6.14-13,4.84-19.06-5.62-42.89-23.41-53.92-27.3-16.92-56.06-13-82,4.51-.47.32-.68,1-.92,1.37,3.65,4.69,7.43,9,10.54,13.69a153.3,153.3,0,0,1,8.28,14.9c3.62,7.11,6.87,14.4,10.55,21.47,4.65,8.94,10.88,16.56,19.59,21.93C174.39,158.9,190.83,158.09,200.83,150.42Z" transform="translate(-24.23 -20.36)"/><path class="e" d="M118,344c0-12,0-24.06,0-36.09,0-8,2.54-10.63,10.4-10.66q21-.06,41.94,0c8.65,0,10.86,3.15,10.35,13.15-1.15,22.83-.75,45.7,0,68.55.31,9.32-2,12.26-10.36,12.28q-21,.07-41.94,0c-7.86,0-10.37-2.61-10.4-10.66,0-12.19,0-24.38,0-36.57Zm31.38.57c3.9,0,7.79-.05,11.68,0,2.66,0,3.83-1.14,3.81-3.8q-.08-11.69,0-23.36c0-2.66-1.15-3.83-3.81-3.81q-11.67.08-23.35,0c-2.66,0-3.82,1.15-3.81,3.81q.07,11.67,0,23.35c0,2.66,1.15,3.85,3.8,3.81C141.63,344.52,145.52,344.57,149.41,344.57ZM149,375.83v0c1.78,0,3.57,0,5.35,0,11.53-.2,10.33,1.88,10.48-10.79,0-3.3-1.15-4.71-4.54-4.61-5.34.15-10.7,0-16,.05-11.51.19-10.41-2.19-10.46,11.26,0,2.86,1.11,4.17,4,4.1C141.54,375.76,145.27,375.83,149,375.83Z" transform="translate(-24.23 -20.36)"/><path class="f" d="M383.91,345c0,12.19,0,24.38,0,36.57,0,7.37-2.68,10.06-10,10.09q-21.46.09-42.92,0c-7,0-9.78-2.77-9.8-9.78q-.09-37.31,0-74.61c0-6.73,2.81-9.53,9.5-9.57q21.7-.12,43.4,0c7,0,9.78,2.77,9.82,9.75.08,12.52,0,25,0,37.55Zm-31.23-31.37c-3.73,0-7.47.09-11.19,0-3-.1-4.51.93-4.46,4.17.12,7.63.09,15.25,0,22.87,0,3,1.37,4,4.17,4q11.43-.11,22.87,0c3,0,4-1.36,4-4.17q-.12-11.43,0-22.87c0-3-1.36-4-4.16-3.95C360.14,313.7,356.41,313.63,352.68,313.63ZM353,360.5v0c-1.62,0-3.24,0-4.86,0-11.73.24-10.55-2.12-10.66,11.09,0,3.13,1.23,4.37,4.34,4.3,5.34-.11,10.69.07,16,0,11.72-.22,10.64,2.5,10.63-11.55,0-2.67-1.17-3.84-3.82-3.79C360.78,360.55,356.89,360.5,353,360.5Z" transform="translate(-24.23 -20.36)"/><path class="g" d="M258.94,266.77c0,7.8,0,7.8-8.14,7.79-7.8,0-7.8,0-7.79-8.62,0-7.31,0-7.31,8.14-7.3C258.94,258.64,258.94,258.64,258.94,266.77Z" transform="translate(-24.23 -20.36)"/><path class="h" d="M157.37,274.72c0,7.66,0,7.66-8.27,7.65-7.65,0-7.65,0-7.65-8.27,0-7.65,0-7.65,8.28-7.65C157.38,266.46,157.38,266.46,157.37,274.72Z" transform="translate(-24.23 -20.36)"/><path class="i" d="M360.5,274.72c0,7.66,0,7.66-8.27,7.65-7.66,0-7.66,0-7.65-8.27,0-7.65,0-7.65,8.27-7.65C360.51,266.46,360.51,266.46,360.5,274.72Z" transform="translate(-24.23 -20.36)"/><path class="j" d="M251.1,368.62c0,7.5,0,7.5-8.52,7.48-7.37,0-7.37,0-7.35-8.65,0-7.25,0-7.25,8.76-7.22C251.12,360.25,251.12,360.25,251.1,368.62Z" transform="translate(-24.23 -20.36)"/></svg>