<svg version="1.1" id="Layer_1" xmlns="http://www.w3.org/2000/svg" xmlns:xlink="http://www.w3.org/1999/xlink" width="500px" height="600px"  xml:space="preserve"> 
 <defs><style>.cls-1,.cls-2{stroke-miterlimit:10;stroke-width:4px;}.cls-1{fill:url(#linear-gradient);
stroke:url(#linear-gradient-2);}.cls-2{fill:url(#linear-gradient-3);stroke:url(#linear-gradient-4);}</style>
<linearGradient id="linear-gradient" x1="2.5" y1="146.42" x2="242.5" y2="146.42" gradientUnits="userSpaceOnUse">
<stop offset="0" stop-color="#2e3192"/><stop offset="1" stop-color="#00aeef"/></linearGradient><linearGradient id="linear-gradient-2" 
x1="0" y1="147.14" x2="245" y2="147.14" xlink:href="#linear-gradient"/><linearGradient id="linear-gradient-3" 
x1="190.97" y1="430.99" x2="431.35" y2="430.99" xlink:href="#linear-gradient"/><linearGradient id="linear-gradient-4" 
x1="188.47" y1="430.26" x2="433.85" y2="430.26" xlink:href="#linear-gradient"/></defs>
<g id="bp_svg">     
	<polygon class="cls-1" points="43.77 257.19 26.68 247.34 12.19 238.96 0.5 232.22 0.5 77.71 134.08 0.58 157.5 14.1 157.5 131.18 231.62 88.39 240.5 93.51 240.5 103.75 151.85 154.94 191.93 178.07 240.5 206.12 240.5 216.35 229.07 222.95 157.5 181.63 157.5 264.51 139.5 274.9 139.5 15.29 15.5 86.88 15.5 222.96 47.58 241.48 64.8 251.42 96.5 269.72 96.5 287.64 43.77 257.19"/><path class="cls-2" d="M191.09,366l17.55,10.11v96.23L292,520.44v40l123.68-71.41V352.81l-83.23-48.05V286.64l98.93,57.11V498.14L297.64,575.33l-26-15V529.09L191,482.54V366" transform="translate(-164 -266.02)"/></g>

  
</svg>