<svg id="Layer_1" data-name="Layer 1" xmlns="http://www.w3.org/2000/svg" viewBox="0 0 272.85 315.67"><defs><style>.cls-1{fill:#fff;stroke:#fff;stroke-miterlimit:10;stroke-width:6px;}</style></defs><title>White White</title><polygon class="cls-1" points="46.27 260.08 29.18 250.22 14.69 241.84 3 235.1 3 80.59 136.58 3.46 160 16.99 160 134.07 234.12 91.27 243 96.4 243 106.63 154.35 157.82 194.43 180.96 243 209 243 219.24 231.57 225.84 160 184.52 160 267.39 142 277.79 142 18.18 18 89.77 18 225.85 50.08 244.37 67.3 254.3 99 272.61 99 290.53 46.27 260.08"/><path class="cls-1" d="M271.6,560.3V529.09L191,482.54V365.91l17.67,10.19v96.23L292,520.44v40l123.68-71.41V352.81l-83.23-48.05V286.64l98.93,57.11V498.14L297.64,575.33Z" transform="translate(-161.5 -263.13)"/></svg>