<svg id="Layer_1" data-name="Layer 1" xmlns="http://www.w3.org/2000/svg" xmlns:xlink="http://www.w3.org/1999/xlink" viewBox="0 0 272.85 315.67" style=""><defs><style>.cls-1,.cls-2{fill:#fff;stroke-miterlimit:10;stroke-width:6px;}.cls-1{stroke:url(#linear-gradient);}.cls-2{stroke:url(#linear-gradient-2);}</style><linearGradient id="linear-gradient" y1="147.86" x2="246" y2="147.86" gradientUnits="userSpaceOnUse"><stop offset="0" stop-color="#2e3192"></stop><stop offset="1" stop-color="#00aeef"></stop></linearGradient><linearGradient id="linear-gradient-2" x1="187.97" y1="430.12" x2="434.35" y2="430.12" xlink:href="#linear-gradient"></linearGradient></defs><title>White Blue</title><path class="cls-1 NssRWrkT_0" d="M46.27,260.08L29.18,250.22L14.69,241.84L3,235.1L3,80.59L136.58,3.46L160,16.99L160,134.07L234.12,91.27L243,96.4L243,106.63L154.35,157.82L194.43,180.96L243,209L243,219.24L231.57,225.84L160,184.52L160,267.39L142,277.79L142,18.18L18,89.77L18,225.85L50.08,244.37L67.3,254.3L99,272.61L99,290.53L46.27,260.08Z"></path><path class="cls-2 NssRWrkT_1" d="M271.6,560.3V529.09L191,482.54V365.91l17.67,10.19v96.23L292,520.44v40l123.68-71.41V352.81l-83.23-48.05V286.64l98.93,57.11V498.14L297.64,575.33Z" transform="translate(-161.5 -263.13)"></path><style data-made-with="vivus-instant">.NssRWrkT_0{stroke-dasharray:1735 1737;stroke-dashoffset:1736;animation:NssRWrkT_draw_0 3000ms ease 0ms infinite,NssRWrkT_fade 3000ms linear 0ms infinite;}.NssRWrkT_1{stroke-dasharray:1341 1343;stroke-dashoffset:1342;animation:NssRWrkT_draw_1 3000ms ease 0ms infinite,NssRWrkT_fade 3000ms linear 0ms infinite;}@keyframes NssRWrkT_draw{100%{stroke-dashoffset:0;}}@keyframes NssRWrkT_fade{0%{stroke-opacity:1;}86.66666666666667%{stroke-opacity:1;}100%{stroke-opacity:0;}}@keyframes NssRWrkT_draw_0{23.333333333333332%{stroke-dashoffset: 1736}73.33333333333333%{ stroke-dashoffset: 0;}100%{ stroke-dashoffset: 0;}}@keyframes NssRWrkT_draw_1{23.333333333333332%{stroke-dashoffset: 1342}73.33333333333333%{ stroke-dashoffset: 0;}100%{ stroke-dashoffset: 0;}}</style></svg>