<svg xmlns="http://www.w3.org/2000/svg" xmlns:xlink="http://www.w3.org/1999/xlink" viewBox="0 0 496.31 496.31"><defs><style>.a{fill:none;}.b{fill:url(#a);}.c{fill:url(#b);}.d{fill:url(#c);}.e{fill:url(#d);}</style><linearGradient id="a" x1="251.06" y1="497" x2="251.06" y2="-0.04" gradientUnits="userSpaceOnUse"><stop offset="0" stop-color="#9f2fff"/><stop offset="1" stop-color="#0bb1d3"/></linearGradient><linearGradient id="b" x1="186.95" y1="497" x2="186.95" y2="-0.04" xlink:href="#a"/><linearGradient id="c" x1="378.83" y1="497" x2="378.83" y2="-0.04" xlink:href="#a"/><linearGradient id="d" x1="363.1" y1="497" x2="363.1" y2="-0.04" xlink:href="#a"/></defs><title>draft</title><path class="a" d="M179.35,379.23c0,7,.22,7.2,7,7.2q56.43,0,112.86,0c6.64,0,7-.38,7-7.26q0-44.81,0-89.61c0-1.69-.21-3.37-.34-5.31-4.3,2.16-8.19,3.74-11.61,6-1.4.94-2.4,3.35-2.52,5.17-.35,5-.06,10-.16,15-.21,11.13.28,22.34-.95,33.36-1.88,16.84-17.3,28.56-34.34,27.31a32.27,32.27,0,1,1,12.14-63c5.41,1.61,5.72,1.39,5.8-4.32,0-3.07-.15-6.14.05-9.2.25-3.88-1-6.49-4.32-8.94-10.65-7.92-14.06-20.39-9.41-32.83,1.64-4.39,3.58-8.65,5.35-13,1.51-3.67,3-7.35,4.95-12.27-7.77,0-14.47,0-21.16,0-5.82,0-6.35.55-6.36,6.43,0,19.05,0,38.1,0,57.16,0,8.14-.08,8.22-8,8.22H153.94c-7.38,0-7.64-.26-7.65-7.61,0-18.89,0-37.78,0-56.68,0-7.23-.36-7.54-7.76-7.54-.64,0-1.29.06-1.93,0-4.26-.36-5.71,1.72-5.59,5.79.18,6.46.07,12.92,0,19.38,0,6.25-.49,7.19-6.46,6.72-12.93-1-25.19,8.64-25.51,25-.13,6.86-.44,7.06-7.17,7.08-11.46,0-22.93-.07-34.39.11-1.87,0-4.63.66-5.43,2-3.72,6.05.18,12.56,7.22,12.57,21.79,0,43.59-.06,65.39,0,17.07.07,14.65-1.92,14.83,15.06.09,8.72,0,17.44,0,26.16,0,6.71.32,7,7.21,7,9,0,18.09.1,27.13,0,3.89-.06,5.59,1.46,5.5,5.42C179.23,366.31,179.33,372.77,179.35,379.23Z" transform="translate(-2.91 -2.91)"/><path class="a" d="M286.93,274.13c5.53-.22,8.18-3.74,10.11-8.34,6.73-16.06,13.54-32.08,20.29-48.13,7.57-18,15.18-35.94,22.58-54,.62-1.5.49-4.56-.48-5.26-5-3.65-10.46-6.78-16.39-10.48-.84,1.7-1.61,3.08-2.22,4.53q-15.33,36.31-30.61,72.65c-4.69,11.14-9.53,22.23-13.9,33.5C273,267.05,278.38,274.47,286.93,274.13Z" transform="translate(-2.91 -2.91)"/><path class="a" d="M156.35,371.15c-8.87.24-17.75.1-26.63.06-6.58,0-6.92-.35-6.94-6.77,0-11.46,0-22.91,0-34.37,0-6-.43-6.48-6.24-6.49q-29.29,0-58.58,0c-5.94,0-6.48.53-6.5,6.28q-.06,25.17,0,50.35c0,5.76.5,6.21,6.51,6.22q24.45,0,48.9,0h46.48c9.41,0,9.19,0,9.34-9.26C162.75,372.39,160.83,371,156.35,371.15Z" transform="translate(-2.91 -2.91)"/><path class="a" d="M363.12,163c-3.13,0-5.09,1-6.33,4q-7.07,17.21-14.44,34.27c-1.54,3.58-.46,5.59,3.16,6.34,5.64,1.17,11.31,2.21,17.09,3.33,5.81-1.07,11.5-2,17.15-3.17,4-.81,5.32-2.91,3.54-7-4.9-11.21-9.62-22.5-14.29-33.81A5.7,5.7,0,0,0,363.12,163Z" transform="translate(-2.91 -2.91)"/><path class="a" d="M259,323.62a15.24,15.24,0,0,0-15.56,15.11,15.49,15.49,0,0,0,15.17,15.66,15.18,15.18,0,0,0,15.6-15.53C274.18,330,267.9,323.68,259,323.62Z" transform="translate(-2.91 -2.91)"/><path class="a" d="M221.1,227.57q-26.37.12-52.75,0c-4,0-5.39,1.69-5.36,5.55q.16,22.26,0,44.52c0,3.78,1.52,5.15,5.21,5.08,8.71-.14,17.42,0,26.13,0,9,0,18.07-.1,27.1,0,3.77.06,5.16-1.48,5.14-5.18q-.15-22.26,0-44.52C226.62,229,225,227.55,221.1,227.57Z" transform="translate(-2.91 -2.91)"/><path class="a" d="M108.77,227.57c-8.7.11-17.4,0-26.1,0-8.54,0-17.08.07-25.62,0-3.73,0-5.7,1.19-5.66,5.28.12,12.08.1,24.16,0,36.25,0,3.74,1.66,5.19,5.28,5.14,7.09-.09,14.18-.14,21.26,0,3.76.09,5.8-1.31,7.13-5A38.84,38.84,0,0,1,109.57,245c3.46-1.23,5.07-3,4.75-6.66a37.64,37.64,0,0,1,0-5.31C114.53,229,112.6,227.52,108.77,227.57Z" transform="translate(-2.91 -2.91)"/><path class="a" d="M444.31,339.18c-13.7.21-27.41.07-41.12.07q-20.31,0-40.63,0c-6.62,0-7,.34-7,6.69q0,32.9,0,65.79c0,6.16.5,6.65,6.6,6.66q40.89,0,81.76,0c6,0,6.45-.44,6.46-6.25,0-22.25-.07-44.5.09-66.75C450.5,340.81,449,339.1,444.31,339.18Z" transform="translate(-2.91 -2.91)"/><path class="a" d="M386.19,164.83c9.85,23,19.47,46,29.18,69,4.69,11.14,9.28,22.33,14.15,33.39,2.69,6.13,8,8.35,13.86,6.33,5.21-1.8,8-7.35,6.6-13.43a37.5,37.5,0,0,0-2.13-5.9q-21.45-51-43-102.07c-.6-1.43-1.4-2.78-2.26-4.46-4.8,3.18-8.95,6.57-13.64,8.84C384.67,158.67,384.47,160.82,386.19,164.83Z" transform="translate(-2.91 -2.91)"/><path class="a" d="M176.33,178.27q26.63-.11,53.27,0c3.56,0,4.85-1.76,4.79-5.12-.08-4.52,0-9,0-13.56,0-11.22,0-11.26-11.2-12.24-2.61-.23-4.67-1.07-4.31-4,.52-4.18-2.33-9.07,2.35-12.41a4.88,4.88,0,0,1,2.37-.31c1.29,0,2.58,0,3.88,0,6.58-.06,6.86-.33,6.91-6.79,0-1.13-.07-2.26,0-3.39.24-3.78-1.64-5.18-5.27-5.09-5.33.12-10.65,0-16,0-11.22,0-11.1,0-10.76-11.32.12-3.91,1.58-5.51,5.52-5.43,7.26.15,14.53.2,21.78-.13,1.57-.08,4.08-1.71,4.42-3.06,2.36-9.21.23-11.82-9.12-12-.49,0-1,0-1.46,0-3.15.08-4.86-1.29-4.74-4.62.06-1.45,0-2.9,0-4.35,0-7.57.11-7.66,7.46-7.71,8.25-.06,8.25-.06,8.18-8.44,0-.65-.05-1.29,0-1.94.17-3.5-1.53-5-5-4.9-5.49.08-11,0-16.47,0-10.92,0-10.79,0-10.57-11,.08-4.1,1.53-5.83,5.73-5.71,7.1.19,14.21,0,21.31.06,3.45,0,5.15-1.33,5-4.86-.07-1.28,0-2.58,0-3.87-.07-6.08-.48-6.53-6.72-6.54q-24.71,0-49.4,0c-6.37,0-6.77.42-6.78,7q0,36.09,0,72.16,0,36.57,0,73.13C171.48,175.14,171.5,178.28,176.33,178.27Z" transform="translate(-2.91 -2.91)"/><path class="a" d="M362.94,114.18a7,7,0,0,0,7.33-7.29,7.3,7.3,0,1,0-14.6,0A7.06,7.06,0,0,0,362.94,114.18Z" transform="translate(-2.91 -2.91)"/><path class="a" d="M355.53,40.75c0,9.14,0,9.14,9.16,9.74a15.24,15.24,0,0,1,1.92.21c3,.58,4.19-.82,4.17-3.67,0-4,0-8.06,0-12.09h0V28.66c0-9.57,0-9.47-9.77-9.28-3.86.07-5.64,1.44-5.53,5.41C355.65,30.11,355.53,35.43,355.53,40.75Z" transform="translate(-2.91 -2.91)"/><path class="a" d="M362.89,146.26a39.39,39.39,0,0,0,39.63-39.09,39.91,39.91,0,0,0-39.55-40c-21.59-.16-39.43,17.91-39.39,39.9A38.81,38.81,0,0,0,362.89,146.26Zm0-63.81c12.94.07,24.26,11.24,24.41,24.09A24.18,24.18,0,0,1,363.14,131c-13.93.08-24.24-10.11-24.29-24A24.15,24.15,0,0,1,362.93,82.45Z" transform="translate(-2.91 -2.91)"/><path class="a" d="M63.49,435.4c-10.25-.18-20.5-.11-30.31-.11l33.31,33.26c0-9.84.07-20.24-.13-30.64C66.34,437,64.5,435.42,63.49,435.4Z" transform="translate(-2.91 -2.91)"/><path class="a" d="M107.54,89.79c0,19.18,0,38.36,0,57.53,0,8.38.11,16.76,0,25.14-.06,4,1.38,6.13,5.62,5.81,1.12-.08,2.25,0,3.38,0,5.82-.08,6.27-.49,6.28-6.44,0-13.7,0-27.39,0-41.09s0-27.4,0-41.09c0-6-.36-6.24-7.41-6.25C108,83.39,107.56,83.69,107.54,89.79Z" transform="translate(-2.91 -2.91)"/><path class="a" d="M482.39,201.05c.27-4-1.61-5.5-5.48-5.45-9.2.11-18.41,0-27.61,0-7.58,0-7.79.38-4.92,7.18,6.85,16.21,13.71,32.42,20.45,48.67,5.48,13.21,1.75,26.74-9.72,34.79a7.81,7.81,0,0,0-3.65,7.28c.12,6.78,0,13.56,0,20.34,0,8.52,0,8.52,8.52,8.61,6.83.07,7.12.32,7.13,7.09q0,48.92,0,97.83c0,7.74,0,7.77-7.85,7.77H346.46c-8.12,0-8.3-.14-8.26-8.51q.27-48.89.6-97.77c0-.8-.27-1.86.12-2.37,1.13-1.44,2.34-3.07,3.91-3.84,1.31-.64,3.16-.2,4.78-.2h79.91c7.14,0,7.21-.09,7.22-7.4,0-6.46-.09-12.92,0-19.37.06-3.2-1.1-5-4.22-6.1-8.28-2.88-13.78-8.73-17-16.82-.95-2.41-2-4.76-3-7.14q-8.47-20.08-16.93-40.16c-.9-2.13-1.67-4.32-4.85-3.12-17.17,6.51-34.35,6.49-51.6.15-1.1-.41-3.68.26-4,1-3.59,9.72-9.82,18.43-9.77,29.56.23,47.3.11,94.6.1,141.9,0,8.14-.06,8.2-8,8.2H42.9c-8.22,0-8.23,0-8.23-8.36q0-88.16,0-176.3c0-1,.09-1.94,0-2.9-.36-4.06,1.71-5.54,5.49-5.38,1.78.08,3.55,0,5.33,0H269.74c8.72,0,8.72,0,12-8,2.44-6,2.07-6.64-4.44-6.64H26.38c-6.46,0-6.93.47-6.94,6.86q0,104.61,0,209.22c0,6.28.4,6.67,6.54,6.69,16.63,0,33.26,0,49.89,0,7.3,0,7.51.22,7.52,7.71q0,24,0,47.95c0,8.27,0,8.28,8.34,8.28H473.89c8.47,0,8.48,0,8.48-8.64q0-134.64,0-269.28C482.39,203.31,482.31,202.18,482.39,201.05ZM269.27,467.22c-27.43-.11-54.86-.06-82.29-.05q-40.66,0-81.32,0c-6.8,0-7-.23-7-7.12,0-11.78.13-23.56-.07-35.33-.08-4.49,1.34-6.37,6.07-6.36q82.27.15,164.57,0c4.18,0,6.22,1.21,6.15,5.78q-.28,18.63,0,37.27C275.42,465.94,273.52,467.24,269.27,467.22Zm197.9-7.17c-.05,6.9-.21,7.11-7,7.11q-40.65,0-81.3,0t-81.3,0c-6.75,0-7-.28-7-7.16v-1.93c0-7.42.23-7.66,7.56-7.66q80.82,0,161.64,0c7.32,0,7.46.18,7.48,7.71Z" transform="translate(-2.91 -2.91)"/><path class="a" d="M81,178.27a24.87,24.87,0,0,1,3.86,0c4.34.4,6-1.42,6-5.86-.18-13.86-.06-27.71-.06-41.57,0-14-.07-28,0-42.06,0-3.93-1.46-5.74-5.41-5.4-.64.06-1.29,0-1.93,0-7.78,0-8,.14-8,7.73q0,23,0,45.93c0,11.92.08,23.85,0,35.77C75.49,176.73,77.11,178.51,81,178.27Z" transform="translate(-2.91 -2.91)"/><path class="a" d="M98.91,42.06,82.82,66.19H115Z" transform="translate(-2.91 -2.91)"/><path class="b" d="M499.1,184.77c0-6-.48-6.47-6.77-6.48-17.28,0-34.55-.15-51.82.06-4.7.06-7.3-1.45-9.07-6-4.91-12.47-10.46-24.67-15.37-37.14a13.66,13.66,0,0,1-.29-8.68c8.84-26.19.16-52.2-23.07-67.22-3.91-2.53-5.42-5.35-5.27-9.87.26-8.39-.2-16.8.14-25.18C388,14.68,385,7.22,375.89,2.91H349.73c-8.46,4.36-11.59,11.29-11,20.72.54,9,0,18.06.16,27.09.06,3.6-1.09,5.86-4.35,7.78-23.78,13.91-33.63,41.78-24.54,67.91a13.41,13.41,0,0,1-.18,8.67c-5.08,12.9-10.69,25.6-15.95,38.43-1.44,3.53-3.72,4.85-7.42,4.79-9.52-.13-19,0-28.56,0-6.41,0-6.75-.37-6.75-6.94q0-80.34,0-160.68c0-2.58-.11-5.15-.17-7.73H155c-.07,5.64-.2,11.29-.2,16.94q0,75.3-.12,150.61c0,2.47-.86,6.76-2.08,7.06a26,26,0,0,1-11.33-.21c-1-.21-1.68-3.87-1.68-5.94-.11-28.25-.4-56.51.09-84.75.17-9.68-2.05-17.72-7.72-25.61-10.17-14.15-19.48-28.92-29.17-43.41-1-1.55-2.27-3-3.86-5-1.57,2-2.79,3.48-3.82,5C84,34.23,72.73,50.79,61.92,67.63a23.08,23.08,0,0,0-3.55,11.63c-.29,30.35-.16,60.7-.17,91.05,0,7.71-.24,7.95-7.83,8q-23.73,0-47.46,0V431.11Q28,456,53.06,480.93C58,485.82,62.65,491,67.9,495.52A14.19,14.19,0,0,0,76.34,499q208.23.25,416.47.23c4.88,0,6.41-1.63,6.41-6.45Q499.06,338.77,499.1,184.77Zm-96.47-37c.86,1.68,1.66,3,2.26,4.46q21.51,51,43,102.07a37.5,37.5,0,0,1,2.13,5.9c1.42,6.08-1.39,11.63-6.6,13.43-5.87,2-11.17-.2-13.86-6.33-4.87-11.06-9.46-22.25-14.15-33.39-9.71-23-19.33-46.09-29.18-69-1.72-4-1.52-6.16,2.8-8.25C393.68,154.31,397.83,150.92,402.63,147.74Zm47.75,264.4c0,5.81-.47,6.25-6.46,6.25q-40.87,0-81.76,0c-6.1,0-6.59-.5-6.6-6.66q0-32.89,0-65.79c0-6.35.38-6.68,7-6.69q20.31,0,40.63,0c13.71,0,27.42.14,41.12-.07,4.66-.08,6.19,1.63,6.16,6.21C450.31,367.64,450.41,389.89,450.38,412.14ZM361,19.38c9.75-.19,9.77-.29,9.77,9.28v6.28h0c0,4,0,8.06,0,12.09,0,2.85-1.17,4.25-4.17,3.67a15.24,15.24,0,0,0-1.92-.21c-9.16-.6-9.16-.6-9.16-9.74,0-5.32.12-10.64,0-16C355.4,20.82,357.18,19.45,361,19.38ZM363,67.21a39.91,39.91,0,0,1,39.55,40,39.39,39.39,0,0,1-39.63,39.09,38.81,38.81,0,0,1-39.31-39.15C323.54,85.12,341.38,67.05,363,67.21Zm16.78,140.48c-5.65,1.14-11.34,2.1-17.15,3.17-5.78-1.12-11.45-2.16-17.09-3.33-3.62-.75-4.7-2.76-3.16-6.34q7.36-17.07,14.44-34.27c1.24-3,3.2-4,6.33-4a5.7,5.7,0,0,1,5.88,4c4.67,11.31,9.39,22.6,14.29,33.81C385.07,204.78,383.72,206.88,379.75,207.69Zm-89.54,17.42q15.27-36.35,30.61-72.65c.61-1.45,1.38-2.83,2.22-4.53,5.93,3.7,11.35,6.83,16.39,10.48,1,.7,1.1,3.76.48,5.26-7.4,18.05-15,36-22.58,54-6.75,16.05-13.56,32.07-20.29,48.13-1.93,4.6-4.58,8.12-10.11,8.34-8.55.34-13.89-7.08-10.62-15.52C280.68,247.34,285.52,236.25,290.21,225.11ZM173.87,354.43c-9,.12-18.08,0-27.13,0-6.89,0-7.19-.3-7.21-7,0-8.72.07-17.44,0-26.16-.18-17,2.24-15-14.83-15.06-21.8-.08-43.6,0-65.39,0-7,0-10.94-6.52-7.22-12.57.8-1.31,3.56-1.94,5.43-2,11.46-.18,22.93-.07,34.39-.11,6.73,0,7-.22,7.17-7.08.32-16.35,12.58-26,25.51-25,6,.47,6.43-.47,6.46-6.72,0-6.46.15-12.92,0-19.38-.12-4.07,1.33-6.15,5.59-5.79.64.06,1.29,0,1.93,0,7.4,0,7.75.31,7.76,7.54,0,18.9,0,37.79,0,56.68,0,7.35.27,7.6,7.65,7.61h81.38c7.9,0,8-.08,8-8.22,0-19.06,0-38.11,0-57.16,0-5.88.54-6.39,6.36-6.43,6.69-.06,13.39,0,21.16,0-2,4.92-3.44,8.6-4.95,12.27-1.77,4.34-3.71,8.6-5.35,13-4.65,12.44-1.24,24.91,9.41,32.83,3.3,2.45,4.57,5.06,4.32,8.94-.2,3.06,0,6.13-.05,9.2-.08,5.71-.39,5.93-5.8,4.32a32.27,32.27,0,1,0-12.14,63c17,1.25,32.46-10.47,34.34-27.31,1.23-11,.74-22.23.95-33.36.1-5-.19-10,.16-15,.12-1.82,1.12-4.23,2.52-5.17,3.42-2.29,7.31-3.87,11.61-6,.13,1.94.34,3.62.34,5.31q0,44.81,0,89.61c0,6.88-.36,7.26-7,7.26q-56.43,0-112.86,0c-6.76,0-7-.23-7-7.2,0-6.46-.12-12.92,0-19.38C179.46,355.89,177.76,354.37,173.87,354.43Zm-11.2,22.75c-.15,9.25.07,9.26-9.34,9.26H106.85q-24.45,0-48.9,0c-6,0-6.49-.46-6.51-6.22q0-25.17,0-50.35c0-5.75.56-6.27,6.5-6.28q29.3,0,58.58,0c5.81,0,6.22.47,6.24,6.49,0,11.46,0,22.91,0,34.37,0,6.42.36,6.75,6.94,6.77,8.88,0,17.76.18,26.63-.06C160.83,371,162.75,372.39,162.67,377.18ZM114.32,238.29c.32,3.64-1.29,5.43-4.75,6.66a38.84,38.84,0,0,0-24.49,24.36c-1.33,3.65-3.37,5.05-7.13,5-7.08-.17-14.17-.12-21.26,0-3.62.05-5.31-1.4-5.28-5.14.08-12.09.1-24.17,0-36.25,0-4.09,1.93-5.33,5.66-5.28,8.54.1,17.08,0,25.62,0,8.7,0,17.4.08,26.1,0,3.83,0,5.76,1.44,5.53,5.41A37.64,37.64,0,0,0,114.32,238.29Zm112.26,39.24c0,3.7-1.37,5.24-5.14,5.18-9-.14-18.06,0-27.1,0-8.71,0-17.42-.1-26.13,0-3.69.07-5.24-1.3-5.21-5.08q.15-22.26,0-44.52c0-3.86,1.37-5.57,5.36-5.55q26.37.15,52.75,0c3.88,0,5.52,1.47,5.48,5.44Q226.42,255.27,226.58,277.53Zm47.58,61.33a15.18,15.18,0,0,1-15.6,15.53,15.49,15.49,0,0,1-15.17-15.66A15.24,15.24,0,0,1,259,323.62C267.9,323.68,274.18,330,274.16,338.86ZM171.49,26.42c0-6.56.41-7,6.78-7q24.71,0,49.4,0c6.24,0,6.65.46,6.72,6.54,0,1.29-.07,2.59,0,3.87.17,3.53-1.53,4.91-5,4.86-7.1-.1-14.21.13-21.31-.06-4.2-.12-5.65,1.61-5.73,5.71-.22,11-.35,11,10.57,11,5.49,0,11,.08,16.47,0,3.44-.06,5.14,1.4,5,4.9,0,.65,0,1.29,0,1.94.07,8.38.07,8.38-8.18,8.44-7.35,0-7.44.14-7.46,7.71,0,1.45.07,2.9,0,4.35-.12,3.33,1.59,4.7,4.74,4.62.49,0,1,0,1.46,0,9.35.22,11.48,2.83,9.12,12-.34,1.35-2.85,3-4.42,3.06-7.25.33-14.52.28-21.78.13-3.94-.08-5.4,1.52-5.52,5.43-.34,11.33-.46,11.32,10.76,11.32,5.33,0,10.65.11,16,0,3.63-.09,5.51,1.31,5.27,5.09-.06,1.13,0,2.26,0,3.39,0,6.46-.33,6.73-6.91,6.79-1.3,0-2.59,0-3.88,0a4.88,4.88,0,0,0-2.37.31c-4.68,3.34-1.83,8.23-2.35,12.41-.36,2.89,1.7,3.73,4.31,4,11.21,1,11.2,1,11.2,12.24,0,4.52-.08,9,0,13.56.06,3.36-1.23,5.13-4.79,5.12q-26.64-.07-53.27,0c-4.83,0-4.85-3.13-4.84-6.56q0-36.57,0-73.13Q171.49,62.51,171.49,26.42ZM122.78,89.64c0,13.69,0,27.39,0,41.09s0,27.39,0,41.09c0,6-.46,6.36-6.28,6.44-1.13,0-2.26-.07-3.38,0-4.24.32-5.68-1.77-5.62-5.81.15-8.38,0-16.76,0-25.14,0-19.17,0-38.35,0-57.53,0-6.1.46-6.4,7.83-6.4C122.42,83.4,122.76,83.64,122.78,89.64ZM98.91,42.06,115,66.19H82.82Zm-23.37,95q0-23,0-45.93c0-7.59.18-7.74,8-7.73.64,0,1.29.06,1.93,0,4-.34,5.45,1.47,5.41,5.4-.12,14,0,28,0,42.06,0,13.86-.12,27.71.06,41.57.06,4.44-1.65,6.26-6,5.86a24.87,24.87,0,0,0-3.86,0c-3.9.24-5.52-1.54-5.49-5.45C75.62,160.9,75.55,149,75.54,137.05Zm-9.05,331.5L33.18,435.29c9.81,0,20.06-.07,30.31.11,1,0,2.85,1.62,2.87,2.51C66.56,448.31,66.49,458.71,66.49,468.55Zm415.88,5.17c0,8.63,0,8.64-8.48,8.64H91.76c-8.33,0-8.34,0-8.34-8.28q0-24,0-47.95c0-7.49-.22-7.71-7.52-7.71-16.63,0-33.26,0-49.89,0-6.14,0-6.54-.41-6.54-6.69q0-104.61,0-209.22c0-6.39.48-6.86,6.94-6.86H277.26c6.51,0,6.88.63,4.44,6.64-3.24,8-3.24,8-12,8H45.5c-1.78,0-3.55.08-5.33,0-3.78-.16-5.85,1.32-5.49,5.38.09,1,0,1.94,0,2.9q0,88.15,0,176.3c0,8.34,0,8.36,8.23,8.36H315.57c7.93,0,8-.06,8-8.2,0-47.3.13-94.6-.1-141.9,0-11.13,6.18-19.84,9.77-29.56.28-.77,2.86-1.44,4-1,17.25,6.34,34.43,6.36,51.6-.15,3.18-1.2,3.95,1,4.85,3.12q8.48,20.07,16.93,40.16c1,2.38,2.06,4.73,3,7.14,3.2,8.09,8.7,13.94,17,16.82,3.12,1.08,4.28,2.9,4.22,6.1-.13,6.45,0,12.91,0,19.37,0,7.31-.08,7.39-7.22,7.4H347.61c-1.62,0-3.47-.44-4.78.2-1.57.77-2.78,2.4-3.91,3.84-.39.51-.11,1.57-.12,2.37q-.3,48.89-.6,97.77c0,8.37.14,8.51,8.26,8.51H459.31c7.82,0,7.85,0,7.85-7.77q0-48.92,0-97.83c0-6.77-.3-7-7.13-7.09-8.51-.09-8.52-.09-8.52-8.61,0-6.78.08-13.56,0-20.34a7.81,7.81,0,0,1,3.65-7.28c11.47-8.05,15.2-21.58,9.72-34.79-6.74-16.25-13.6-32.46-20.45-48.67-2.87-6.8-2.66-7.16,4.92-7.18,9.2,0,18.41.09,27.61,0,3.87,0,5.75,1.5,5.48,5.45-.08,1.13,0,2.26,0,3.39Q482.39,339.08,482.37,473.72Z" transform="translate(-2.91 -2.91)"/><path class="c" d="M275.35,424.15c.07-4.57-2-5.79-6.15-5.78q-82.29.11-164.57,0c-4.73,0-6.15,1.87-6.07,6.36.2,11.77,0,23.55.07,35.33,0,6.89.23,7.12,7,7.12q40.67,0,81.32,0c27.43,0,54.86-.06,82.29.05,4.25,0,6.15-1.28,6.08-5.8Q275.07,442.79,275.35,424.15ZM130.6,443c0,7.29-.13,7.4-7.72,7.39-7.4,0-7.51-.13-7.48-8.13,0-7,.13-7.1,8-7.09C130.61,435.2,130.61,435.2,130.6,443Zm24.45,7.39c-7.6,0-7.69-.09-7.67-7.93,0-7.25.05-7.29,7.78-7.29,7.41,0,7.42,0,7.41,7.64S162.51,450.4,155.05,450.4Zm31.64,0c-7.21,0-7.34-.16-7.33-7.8,0-7.38,0-7.42,7.65-7.42s7.54,0,7.54,7.5C194.56,450.36,194.49,450.42,186.69,450.4Zm39.84-7.46c0,7.38-.09,7.46-7.65,7.46s-7.57-.12-7.54-8.06c0-7.11.08-7.17,7.9-7.16C226.55,435.2,226.55,435.2,226.53,442.94Zm24.56,7.46c-7.64,0-7.76-.1-7.77-7.34,0-7.82,0-7.86,7.18-7.88,8,0,8,0,8,7.53S258.4,450.38,251.09,450.4Z" transform="translate(-2.91 -2.91)"/><path class="d" d="M459.69,450.41q-80.82,0-161.64,0c-7.33,0-7.53.24-7.56,7.66V460c.06,6.88.29,7.16,7,7.16q40.65,0,81.3,0t81.3,0c6.83,0,7-.21,7-7.11v-1.93C467.15,450.59,467,450.41,459.69,450.41Z" transform="translate(-2.91 -2.91)"/><path class="e" d="M363.14,131a24.18,24.18,0,0,0,24.2-24.45c-.15-12.85-11.47-24-24.41-24.09A24.15,24.15,0,0,0,338.85,107C338.9,120.88,349.21,131.07,363.14,131ZM363,99.46a7.26,7.26,0,0,1,7.27,7.43,7.3,7.3,0,1,1-14.6,0A7.2,7.2,0,0,1,363,99.46Z" transform="translate(-2.91 -2.91)"/></svg>