<?xml version="1.0" encoding="utf-8"?>
<!-- Generator: Adobe Illustrator 22.1.0, SVG Export Plug-In . SVG Version: 6.00 Build 0)  -->
<svg version="1.1" id="b7d8d657-bdb0-4cab-bef3-dbc27e5f057f"
	 xmlns="http://www.w3.org/2000/svg" xmlns:xlink="http://www.w3.org/1999/xlink" x="0px" y="0px" viewBox="0 0 1011.7 692.8"
	 style="enable-background:new 0 0 1011.7 692.8;" xml:space="preserve">
<style type="text/css">
	.st0{fill:#D0CDE1;}
	.st1{fill:#3F3D56;}
	.st2{fill:#FF8D72;}
	.st3{fill:#2F2E41;}
	.st4{fill:#FFB8B8;}
	.st5{fill:#575A89;}
</style>
<title>environmental_study</title>
<path class="st0" d="M957.2,563.7c-4.4,0-8.6,2.1-12.5,6c-10.6-38.3-27.1-62.9-45.5-62.9s-34.9,24.6-45.5,62.9
	c-3.9-3.9-8.1-6-12.5-6c-21,0-38,48.4-38,108.1h192C995.2,612.1,978.2,563.7,957.2,563.7z"/>
<path class="st0" d="M389.2,502.5c-4.5,0.1-8.9,1.6-12.5,4.4c-10.6-28.1-27.1-46.1-45.5-46.1s-34.9,18-45.5,46.1
	c-3.6-2.8-7.9-4.3-12.5-4.4c-21,0-38,35.5-38,79.3h192C427.2,538,410.2,502.5,389.2,502.5z"/>
<path class="st1" d="M1011.7,692.8H1.7c0.9-82.1,226.7-148.5,505-148.5S1010.8,610.7,1011.7,692.8z"/>
<circle class="st0" cx="129.2" cy="241" r="129.2"/>
<path class="st1" d="M133.3,610.8H126V256c0-10,1.2-19.9,3.6-29.6l0,0c2.4,9.7,3.6,19.6,3.6,29.6L133.3,610.8z"/>
<path class="st1" d="M130.1,350.8l-3.8-6.2l54-33.4c3.7-2.3,8.1-3.5,12.5-3.4l0,0c-1.9,4-4.9,7.3-8.6,9.6L130.1,350.8z"/>
<path class="st1" d="M127.6,317.1l3.8-6.2l-37.1-23c-2.9-1.8-6.5-2.5-9.9-1.8l0,0c0.9,3.3,3.1,6.2,6,8L127.6,317.1z"/>
<path class="st1" d="M127.6,458.8l3.8-6.2l-37.1-23c-2.9-1.8-6.5-2.5-9.9-1.8l0,0c0.9,3.3,3.1,6.2,6,8L127.6,458.8z"/>
<circle class="st0" cx="814.2" cy="242.8" r="124"/>
<path class="st1" d="M810.2,597.8h7V257.2c0-9.6-1.2-19.1-3.5-28.4l0,0c-2.3,9.3-3.5,18.8-3.5,28.4V597.8z"/>
<path class="st1" d="M813.3,348.2l3.7-6l-51.8-32.1c-3.6-2.2-7.8-3.4-12-3.3l0,0c1.8,3.8,4.7,7,8.3,9.3L813.3,348.2z"/>
<path class="st1" d="M815.7,315.9l-3.7-6l35.6-22.1c2.8-1.8,6.2-2.4,9.5-1.8l0,0c-0.9,3.2-3,6-5.8,7.7L815.7,315.9z"/>
<path class="st1" d="M815.7,451.9l-3.7-6l35.6-22.1c2.8-1.8,6.2-2.4,9.5-1.8l0,0c-0.9,3.2-3,6-5.8,7.7L815.7,451.9z"/>
<path class="st0" d="M148.3,680.3c-1.1,0-2.2,0.2-3.2,0.7c-2.8-4.4-7-7.2-11.9-7.2c-4.8,0-9.1,2.8-11.9,7.2c-1-0.5-2.1-0.7-3.2-0.7
	c-5.5,0-9.9,5.6-9.9,12.4h50C158.2,685.9,153.7,680.3,148.3,680.3z"/>
<path class="st0" d="M458.3,671.8c-1.2,0-2.3,0.4-3.2,1.2c-2.8-7.4-7-12.2-11.9-12.2s-9.1,4.8-11.9,12.2c-0.9-0.7-2.1-1.1-3.2-1.2
	c-5.5,0-9.9,9.4-9.9,21h50C468.2,681.2,463.7,671.8,458.3,671.8z"/>
<path class="st2" d="M889.3,671.8c-1.2,0-2.3,0.4-3.2,1.2c-2.8-7.4-7-12.2-11.9-12.2s-9.1,4.8-11.9,12.2c-0.9-0.7-2.1-1.1-3.2-1.2
	c-5.5,0-9.9,9.4-9.9,21h50C899.2,681.2,894.7,671.8,889.3,671.8z"/>
<polygon class="st3" points="621.4,482.1 619.8,489.6 617.8,497.2 611.4,586.9 633.3,588.5 643.2,490.4 641.6,485.2 "/>
<path class="st3" d="M602.7,574.6l-9.1,13.9c0,0-25.4,20.6-7.1,21.8s25-12.3,25-12.3s6.4-2,7.1-4s-1.6-19.5-1.6-19.5L602.7,574.6
	L602.7,574.6z"/>
<path class="st3" d="M613,585.3c0,0-9.1,23-7.9,27s3.2,4,2.8,7.5s-1.6,11.9,13.5,12.3s7.9-19.9,7.9-19.9l-2-27H613V585.3z"/>
<path class="st3" d="M585.2,415c0,0-5.6,9.5-4.8,15.5s12.3,69.9,12.3,69.9l9.1,77.8l20.3-1.6l-7.9-71.9l2-57.2l3.6,42.1l23.4,0.8
	l13.9-60c0,0-10.3-16.7-12.3-17.9S585.2,415,585.2,415z"/>
<circle class="st4" cx="612.8" cy="277.4" r="17.1"/>
<polygon class="st4" points="607.9,288.3 610.2,310.9 636.5,306.9 622.2,280.3 "/>
<path class="st0" d="M634.5,300.2c0,0-13.5,9.9-26.6,4.4L588,355v63.1c0,0,29.8,8.7,46.5-1.6c0,0,11.9-2.4,13.9-2
	s-7.1-107.6-7.1-107.6L634.5,300.2z"/>
<path class="st5" d="M622.2,302.6l9.1,13.1c1.8,3.3,2.3,7.1,1.6,10.7c-1.2,6.4-2.4,89.3,8.7,92.5s18.3,2.8,18.3,2.8
	s-9.9-47.7-6.4-56l11.1-50L635.3,299c0,0-1.8-7.5-4.9-3.4C628.1,298.4,625.3,300.8,622.2,302.6z"/>
<path class="st5" d="M595.6,376.4l13.6-76.2l-13.6,7.1c0,0-15.5,6.4-18.7,13.9S561,364.9,561,364.9s3.2,21.8,15.1,12.7
	s9.1-13.5,9.1-13.5s-10.3,42.1-8.7,43.3s2.4,12.3,2.4,12.3l12.3-2.4L595.6,376.4z"/>
<path class="st4" d="M580.1,333.9l5.2-7.5c0,0,11.7-23.4,20.1-15.5s-15.8,26.2-15.8,26.2L580.1,333.9z"/>
<polygon class="st4" points="650,416.1 646.8,420.2 654.7,430.4 658.3,423.3 "/>
<path class="st3" d="M606,263.2c-1.8,0-3.3,1.1-4.7,2.1s-3.1,2-4.8,1.8c-1.6-0.3-3.1-1.4-3.8-2.9s-1.1-3.1-1.3-4.7l2,0.7l-1.6-1.8
	l17.1-5.2c5.2-1.6,11-3.1,15.7-0.5c2.4,1.5,4.4,3.7,5.7,6.2c5.5,10,5.3,22.1-0.5,32c-2.6-0.2-4.3-3-4.7-5.6s0-5.3-0.5-7.8
	s-2.5-5.2-5.1-5.1l-1.4,2.9c0.9-1.9-4.4-6.5-5.6-7.3c-1.1-0.6-2.1-1.4-3.1-2.2C608.2,264.6,608,263.2,606,263.2z"/>
<path class="st5" d="M581.7,329.6l9.5,6l-9.5,39.7c0,0-15.1,18.7-20.6,0c-4.7-15.6,13-37.1,18.8-43.7
	C581,330.3,581.7,329.6,581.7,329.6z"/>
<path class="st5" d="M655.5,314.9h9.1c0,0,7.9,15.5,8.7,23.8s0.8,41.3,0.8,41.3l-15.5,46.1l-11.9-8.7l9.9-27.4c0,0-1.2-6,0-8.7
	s-3.6-17.1-4.4-17.9S655.5,314.9,655.5,314.9z"/>
<g>
	<rect x="439.7" y="120.7" class="st1" width="107.5" height="9.6"/>
	<rect x="439.7" y="156" class="st1" width="107.5" height="9.6"/>
	<rect x="439.7" y="187.6" class="st1" width="107.5" height="9.6"/>
	<polygon class="st1" points="265.3,217.7 318,164 377.6,164 377.6,162 317.2,162 316.9,162.3 263.9,216.3 	"/>
	<circle class="st2" cx="405.9" cy="128.4" r="11.8"/>
	<circle class="st2" cx="405.9" cy="163.7" r="11.8"/>
	<circle class="st2" cx="405.9" cy="195.3" r="11.8"/>
	<path class="st1" d="M399.3,125.5c0-6.9,5.6-12.5,12.5-12.5s12.5,5.6,12.5,12.5c0,6.9-5.6,12.5-12.5,12.5l0,0
		C404.9,138,399.3,132.4,399.3,125.5z M400.8,125.5c0,6.1,4.9,11,11,11s11-4.9,11-11c0-6.1-4.9-11-11-11
		C405.7,114.5,400.8,119.4,400.8,125.5L400.8,125.5z"/>
	<path class="st1" d="M399.3,160.8c0-6.9,5.6-12.5,12.5-12.5s12.5,5.6,12.5,12.5s-5.6,12.5-12.5,12.5l0,0
		C404.9,173.3,399.3,167.7,399.3,160.8z M400.8,160.8c0,6.1,4.9,11,11,11s11-4.9,11-11s-4.9-11-11-11l0,0
		C405.7,149.8,400.8,154.7,400.8,160.8L400.8,160.8z"/>
	<path class="st1" d="M399.3,192.4c0-6.9,5.6-12.5,12.5-12.5s12.5,5.6,12.5,12.5s-5.6,12.5-12.5,12.5l0,0
		C404.9,204.9,399.3,199.3,399.3,192.4z M400.8,192.4c0,6.1,4.9,11,11,11s11-4.9,11-11s-4.9-11-11-11
		C405.7,181.3,400.8,186.3,400.8,192.4L400.8,192.4z"/>
</g>
<g>
	<rect x="536.3" y="7.7" class="st1" width="107.5" height="9.6"/>
	<rect x="536.3" y="43" class="st1" width="107.5" height="9.6"/>
	<rect x="536.3" y="74.6" class="st1" width="107.5" height="9.6"/>
	<polygon class="st1" points="808.2,114.7 765.5,51 705.9,51 705.9,49 766.3,49 766.6,49.3 809.6,113.3 	"/>
	<circle class="st2" cx="677.5" cy="15.4" r="11.8"/>
	<circle class="st2" cx="677.5" cy="50.7" r="11.8"/>
	<circle class="st2" cx="677.5" cy="82.3" r="11.8"/>
	<path class="st1" d="M671.7,25c-6.9,0-12.5-5.6-12.5-12.5S664.8,0,671.7,0s12.5,5.6,12.5,12.5l0,0C684.1,19.4,678.6,25,671.7,25z
		 M671.7,1.5c-6.1,0-11,4.9-11,11s4.9,11,11,11s11-4.9,11-11S677.7,1.5,671.7,1.5z"/>
	<path class="st1" d="M671.7,60.3c-6.9,0-12.5-5.6-12.5-12.5s5.6-12.5,12.5-12.5s12.5,5.6,12.5,12.5l0,0
		C684.1,54.7,678.6,60.3,671.7,60.3z M671.7,36.7c-6.1,0-11,4.9-11,11s4.9,11,11,11s11-4.9,11-11l0,0
		C682.7,41.7,677.7,36.8,671.7,36.7z"/>
	<path class="st1" d="M671.7,91.9c-6.9,0-12.5-5.6-12.5-12.5s5.6-12.5,12.5-12.5s12.5,5.6,12.5,12.5l0,0
		C684.1,86.3,678.6,91.9,671.7,91.9z M671.7,68.3c-6.1,0-11,4.9-11,11s4.9,11,11,11s11-4.9,11-11C682.7,73.3,677.7,68.3,671.7,68.3z
		"/>
</g>
<g>
	<rect x="454.4" y="377.2" class="st1" width="75" height="6.7"/>
	<rect x="454.4" y="401.8" class="st1" width="75" height="6.7"/>
	<rect x="454.4" y="423.9" class="st1" width="75" height="6.7"/>
	<polygon class="st1" points="332.6,444.9 369.4,407.4 411,407.4 411,406 368.8,406 368.6,406.2 331.6,444 	"/>
	<circle class="st2" cx="430.8" cy="382.6" r="8.2"/>
	<circle class="st2" cx="430.8" cy="407.2" r="8.2"/>
	<circle class="st2" cx="430.8" cy="429.3" r="8.2"/>
	<path class="st1" d="M426.2,380.5c0-4.8,3.9-8.7,8.7-8.7s8.7,3.9,8.7,8.7s-3.9,8.7-8.7,8.7S426.2,385.3,426.2,380.5z M427.2,380.5
		c0,4.3,3.4,7.7,7.7,7.7c4.3,0,7.7-3.4,7.7-7.7c0-4.3-3.4-7.7-7.7-7.7C430.7,372.8,427.2,376.3,427.2,380.5z"/>
	<path class="st1" d="M426.2,405.2c0-4.8,3.9-8.7,8.7-8.7s8.7,3.9,8.7,8.7c0,4.8-3.9,8.7-8.7,8.7C430.1,413.9,426.2,410,426.2,405.2
		z M427.2,405.2c0,4.3,3.4,7.7,7.7,7.7s7.7-3.4,7.7-7.7c0-4.3-3.4-7.7-7.7-7.7C430.7,397.5,427.2,400.9,427.2,405.2z"/>
	<path class="st1" d="M426.2,427.2c0-4.8,3.9-8.7,8.7-8.7s8.7,3.9,8.7,8.7s-3.9,8.7-8.7,8.7C430.1,435.9,426.2,432,426.2,427.2z
		 M427.2,427.2c0,4.3,3.4,7.7,7.7,7.7s7.7-3.4,7.7-7.7s-3.4-7.7-7.7-7.7C430.7,419.5,427.2,423,427.2,427.2z"/>
</g>
</svg>
